<?xml version="1.0" encoding="utf-8"?>
<!-- Generator: Adobe Illustrator 19.1.0, SVG Export Plug-In . SVG Version: 6.00 Build 0)  -->
<svg version="1.1" id="Layer_1" xmlns="http://www.w3.org/2000/svg" xmlns:xlink="http://www.w3.org/1999/xlink" x="0px" y="0px"
	 viewBox="0 0 220 140" style="enable-background:new 0 0 220 140;" xml:space="preserve">
<style type="text/css">
	.st0{fill:#EFD09E;}
	.st1{fill:#D8AE64;}
	.st2{fill:#FFFFFF;}
	.st3{fill:#FFF3E3;}
	.st4{opacity:0.1;fill:#2A4758;}
	.st5{fill:#2A4758;}
	.st6{opacity:0.4;fill:#FFFFFF;}
	.st7{opacity:0.6;fill:#FFFFFF;}
	.st8{fill:none;stroke:#D8AE64;stroke-miterlimit:10;}
	.st9{fill:#D38A16;}
	.st10{fill:none;stroke:#FFFFFF;stroke-miterlimit:10;}
	.st11{opacity:0.5;fill:#F95A61;}
	.st12{opacity:0.5;fill:none;stroke:#F95A61;stroke-miterlimit:10;}
	.st13{fill:none;stroke:#000000;stroke-miterlimit:10;}
	.st14{opacity:0.7;fill:#FFF3E3;}
	.st15{opacity:0.7;fill:#FFFFFF;}
	.st16{fill:#F95A61;}
	.st17{opacity:0.5;fill:#D8AE64;}
	.st18{fill:#F15A24;}
	.st19{fill:none;stroke:#D8AE64;stroke-width:2;stroke-miterlimit:10;}
	.st20{fill:#A05258;}
	.st21{fill:#2A4758;stroke:#2A4758;stroke-miterlimit:10;}
	.st22{fill:#2A4758;stroke:#FFF3E3;stroke-miterlimit:10;}
	.st23{opacity:0.6;fill:#2A4758;}
	.st24{fill:#49707F;}
	.st25{opacity:0.3;fill:none;stroke:#FFF3E3;stroke-width:7;stroke-miterlimit:10;}
	.st26{fill:none;stroke:#D8AE64;stroke-width:4;stroke-miterlimit:10;}
	.st27{opacity:0.5;}
	.st28{fill:none;stroke:#D8AE64;stroke-width:5;stroke-miterlimit:10;}
	.st29{fill:none;stroke:#2A4758;stroke-width:5;stroke-miterlimit:10;}
	.st30{fill:none;stroke:#F95A61;stroke-width:4;stroke-linecap:round;stroke-miterlimit:10;}
	.st31{opacity:0.4;fill:#D8AE64;}
	.st32{fill:#375868;}
	.st33{fill:none;stroke:#375868;stroke-width:5;stroke-miterlimit:10;}
	.st34{fill:none;stroke:#D8AE64;stroke-width:3;stroke-miterlimit:10;}
	.st35{opacity:0.3;fill:none;stroke:#2A4758;stroke-miterlimit:10;}
	.st36{fill:none;stroke:#A05258;stroke-miterlimit:10;}
	.st37{fill:none;stroke:#A05258;stroke-miterlimit:10;stroke-dasharray:2,2;}
	.st38{fill:none;stroke:#F95A61;stroke-miterlimit:10;}
	.st39{fill:none;stroke:#F95A61;stroke-miterlimit:10;stroke-dasharray:2,2;}
	.st40{opacity:0.4;fill:none;stroke:#2A4758;stroke-width:3;stroke-miterlimit:10;}
	.st41{opacity:0.4;}
	.st42{fill:none;stroke:#D8AE64;stroke-width:3;stroke-miterlimit:10;stroke-dasharray:2,2;}
	.st43{opacity:0.6;fill:#D8AE64;}
	.st44{opacity:0.2;fill:none;stroke:#2A4758;stroke-width:3;stroke-miterlimit:10;}
	.st45{fill:none;stroke:#2A4758;stroke-width:3;stroke-miterlimit:10;}
	.st46{opacity:0.7;}
	.st47{opacity:0.2;fill:#2A4758;}
	.st48{opacity:0.2;fill:none;stroke:#2A4758;stroke-width:0.4695;stroke-linecap:round;stroke-miterlimit:10;}
	.st49{opacity:0.2;}
	.st50{fill:none;stroke:#2A4758;stroke-width:0.4695;stroke-linecap:round;stroke-linejoin:round;stroke-miterlimit:10;}
	.st51{fill:#FFFFFF;stroke:#2A4758;stroke-width:0.4695;stroke-linecap:round;stroke-miterlimit:10;}
	.st52{opacity:0.3;}
	.st53{fill:none;stroke:#D8AE64;stroke-width:0.5315;stroke-linecap:round;stroke-linejoin:round;stroke-miterlimit:10;}
	.st54{fill:none;stroke:#EFD09E;stroke-width:26;stroke-miterlimit:10;}
	.st55{fill:none;stroke:#EFD09E;stroke-width:26;stroke-linecap:round;stroke-miterlimit:10;}
	.st56{fill:#A05258;stroke:#D8AE64;stroke-width:26;stroke-linecap:round;stroke-miterlimit:10;}
	.st57{fill:none;stroke:#2A4758;stroke-width:26;stroke-miterlimit:10;}
	.st58{fill:#EFD09E;stroke:#F95A61;stroke-width:26;stroke-miterlimit:10;}
	.st59{fill:none;stroke:#F95A61;stroke-width:26;stroke-miterlimit:10;}
	.st60{fill:none;stroke:#F15A24;stroke-width:10;stroke-miterlimit:10;}
	.st61{fill:none;stroke:#F15A24;stroke-width:10;stroke-miterlimit:10;stroke-dasharray:12.0461,12.0461;}
	.st62{fill:none;stroke:#F15A24;stroke-width:10;stroke-miterlimit:10;stroke-dasharray:11.2667,11.2667;}
	.st63{fill:none;stroke:#F15A24;stroke-width:2.6981;stroke-miterlimit:10;}
	.st64{fill:none;stroke:#F15A24;stroke-width:2.6981;stroke-miterlimit:10;stroke-dasharray:3.188,3.188;}
	.st65{fill:none;stroke:#F15A24;stroke-width:2.6981;stroke-miterlimit:10;stroke-dasharray:3.2207,3.2207;}
	.st66{fill:none;stroke:#F15A24;stroke-width:13.146;stroke-miterlimit:10;}
	.st67{fill:none;stroke:#F15A24;stroke-width:13.146;stroke-miterlimit:10;stroke-dasharray:15.8152,15.8152;}
	.st68{fill:none;stroke:#F15A24;stroke-width:13.146;stroke-miterlimit:10;stroke-dasharray:14.8316,14.8316;}
	.st69{fill:none;stroke:#D8AE64;stroke-width:6;stroke-linecap:round;stroke-miterlimit:10;}
	.st70{fill:none;stroke:#F95A61;stroke-width:3;stroke-miterlimit:10;}
	.st71{fill:#FFFFFF;stroke:#D8AE64;stroke-width:3.6755;stroke-miterlimit:10;}
	.st72{fill:none;stroke:#D8AE64;stroke-width:2.4503;stroke-linecap:round;stroke-miterlimit:10;}
	.st73{fill:none;stroke:#D8AE64;stroke-width:2.4503;stroke-linecap:round;stroke-linejoin:round;stroke-miterlimit:10;}
	.st74{fill:#FFFFFF;stroke:#2A4758;stroke-width:0.6524;stroke-linecap:round;stroke-miterlimit:10;}
	.st75{fill:none;stroke:#EFD09E;stroke-width:3;stroke-miterlimit:10;}
	.st76{fill:none;stroke:#EFD09E;stroke-width:3;stroke-linecap:round;stroke-miterlimit:10;}
	.st77{fill:#A05258;stroke:#D8AE64;stroke-width:3;stroke-linecap:round;stroke-miterlimit:10;}
	.st78{fill:none;stroke:#D8AE64;stroke-width:3.0248;stroke-linecap:round;stroke-miterlimit:10;}
	.st79{fill:#EFD09E;stroke:#F95A61;stroke-width:3;stroke-miterlimit:10;}
	.st80{fill:none;stroke:#A05258;stroke-width:3;stroke-linecap:round;stroke-miterlimit:10;}
	.st81{fill:none;stroke:#A05258;stroke-linecap:round;stroke-linejoin:round;stroke-miterlimit:10;}
	.st82{fill:none;stroke:#49707F;stroke-width:3;stroke-miterlimit:10;}
	.st83{fill:none;stroke:#D8AE64;stroke-width:2;stroke-linecap:round;stroke-linejoin:round;stroke-miterlimit:10;}
	.st84{fill:none;stroke:#F95A61;stroke-width:4;stroke-linecap:square;stroke-miterlimit:10;}
	.st85{opacity:0.35;fill:#2A4758;}
	.st86{fill:none;stroke:#F95A61;stroke-width:4;stroke-miterlimit:10;}
	.st87{opacity:0.5;fill:#FFFFFF;}
</style>
<g>
	<line id="XMLID_1055_" class="st29" x1="93.6" y1="84.7" x2="84.1" y2="122.4"/>
	<line id="XMLID_1054_" class="st29" x1="125.5" y1="84.7" x2="134.8" y2="122.4"/>
	<line id="XMLID_1032_" class="st29" x1="88.3" y1="101.6" x2="129.5" y2="101.6"/>
	<path class="st16" d="M139.1,74.9l-3.9-5.4c-1.2-2.3-1.9-4.8-2.1-7.3l-3.8-36.3c-0.8-4.8-5-8.3-9.9-8.3h-19.1
		c-4.9,0-9.1,3.4-9.9,8.3l-3.9,36.6c-0.2,2.6-1,5.1-2.2,7.4L80.7,75c-0.3,0.4-0.5,1-0.4,1.6c0.5,4.7,4.4,8.7,9.3,8.7h40.8
		c4.8,0,8.8-3.9,9.3-8.6C139.7,76,139.5,75.4,139.1,74.9z M101.5,48.3c-0.1,1.6-1.4,2.8-3,2.7c-1.6-0.1-2.8-1.4-2.7-3l0.6-12.7
		c0.1-1.6,1.4-2.8,3-2.7l0,0c1.6,0.1,2.8,1.4,2.7,3L101.5,48.3z M112.9,48.5c0,1.6-1.3,2.9-2.9,2.9h0c-1.6,0-2.9-1.3-2.9-2.9V35.8
		c0-1.6,1.3-2.9,2.9-2.9h0c1.6,0,2.9,1.3,2.9,2.9V48.5z M121.4,51c-1.6,0.1-2.9-1.2-3-2.7l-0.6-12.7c-0.1-1.6,1.2-2.9,2.7-3
		c1.6-0.1,2.9,1.2,3,2.7l0.6,12.7C124.2,49.6,123,51,121.4,51z"/>
	<path id="XMLID_1031_" class="st29" d="M75.4,63.8V83c0,1.2,0.2,2.3,0.5,3.4c1,3.1,4.3,5.2,8,5.3l8,0"/>
	<path id="XMLID_1030_" class="st20" d="M133.6,64.6c0.4,1.8,1,3.6,1.9,5.3c0,0-8,5.7-25,5.7h-1c-17,0-25-5.7-25-5.7
		c0.9-1.7,1.5-3.4,1.9-5.3"/>
	<path id="XMLID_1029_" class="st1" d="M67.6,57.4v-3.4h84.9v3.4c0,5.2-2.4,9.3-7.9,9.3H75.3C69.8,66.7,67.6,62.5,67.6,57.4z"/>
</g>
</svg>
