<?xml version="1.0" encoding="utf-8"?>
<!-- Generator: Adobe Illustrator 19.1.0, SVG Export Plug-In . SVG Version: 6.00 Build 0)  -->
<svg version="1.1" id="Layer_1" xmlns="http://www.w3.org/2000/svg" xmlns:xlink="http://www.w3.org/1999/xlink" x="0px" y="0px"
	 viewBox="0 0 220 140" style="enable-background:new 0 0 220 140;" xml:space="preserve">
<style type="text/css">
	.st0{fill:#EFD09E;}
	.st1{fill:#D8AE64;}
	.st2{fill:#FFFFFF;}
	.st3{fill:#FFF3E3;}
	.st4{opacity:0.1;fill:#2A4758;}
	.st5{fill:#2A4758;}
	.st6{opacity:0.4;fill:#FFFFFF;}
	.st7{opacity:0.6;fill:#FFFFFF;}
	.st8{fill:none;stroke:#D8AE64;stroke-miterlimit:10;}
	.st9{fill:#D38A16;}
	.st10{fill:none;stroke:#FFFFFF;stroke-miterlimit:10;}
	.st11{opacity:0.5;fill:#F95A61;}
	.st12{opacity:0.5;fill:none;stroke:#F95A61;stroke-miterlimit:10;}
	.st13{fill:none;stroke:#000000;stroke-miterlimit:10;}
	.st14{opacity:0.7;fill:#FFF3E3;}
	.st15{opacity:0.7;fill:#FFFFFF;}
	.st16{fill:#F95A61;}
	.st17{opacity:0.5;fill:#D8AE64;}
	.st18{fill:#F15A24;}
	.st19{fill:none;stroke:#D8AE64;stroke-width:2;stroke-miterlimit:10;}
	.st20{fill:#A05258;}
	.st21{fill:#2A4758;stroke:#2A4758;stroke-miterlimit:10;}
	.st22{fill:#2A4758;stroke:#FFF3E3;stroke-miterlimit:10;}
	.st23{opacity:0.6;fill:#2A4758;}
	.st24{fill:#49707F;}
	.st25{opacity:0.3;fill:none;stroke:#FFF3E3;stroke-width:7;stroke-miterlimit:10;}
	.st26{fill:none;stroke:#D8AE64;stroke-width:4;stroke-miterlimit:10;}
	.st27{opacity:0.5;}
	.st28{fill:none;stroke:#D8AE64;stroke-width:5;stroke-miterlimit:10;}
	.st29{fill:none;stroke:#2A4758;stroke-width:5;stroke-miterlimit:10;}
	.st30{fill:none;stroke:#F95A61;stroke-width:4;stroke-linecap:round;stroke-miterlimit:10;}
	.st31{opacity:0.4;fill:#D8AE64;}
	.st32{fill:#375868;}
	.st33{fill:none;stroke:#375868;stroke-width:5;stroke-miterlimit:10;}
	.st34{fill:none;stroke:#D8AE64;stroke-width:3;stroke-miterlimit:10;}
	.st35{opacity:0.3;fill:none;stroke:#2A4758;stroke-miterlimit:10;}
	.st36{fill:none;stroke:#A05258;stroke-miterlimit:10;}
	.st37{fill:none;stroke:#A05258;stroke-miterlimit:10;stroke-dasharray:2,2;}
	.st38{fill:none;stroke:#F95A61;stroke-miterlimit:10;}
	.st39{fill:none;stroke:#F95A61;stroke-miterlimit:10;stroke-dasharray:2,2;}
	.st40{opacity:0.4;fill:none;stroke:#2A4758;stroke-width:3;stroke-miterlimit:10;}
	.st41{opacity:0.4;}
	.st42{fill:none;stroke:#D8AE64;stroke-width:3;stroke-miterlimit:10;stroke-dasharray:2,2;}
	.st43{opacity:0.6;fill:#D8AE64;}
	.st44{opacity:0.2;fill:none;stroke:#2A4758;stroke-width:3;stroke-miterlimit:10;}
	.st45{fill:none;stroke:#2A4758;stroke-width:3;stroke-miterlimit:10;}
	.st46{opacity:0.7;}
	.st47{opacity:0.2;fill:#2A4758;}
	.st48{opacity:0.2;fill:none;stroke:#2A4758;stroke-width:0.4695;stroke-linecap:round;stroke-miterlimit:10;}
	.st49{opacity:0.2;}
	.st50{fill:none;stroke:#2A4758;stroke-width:0.4695;stroke-linecap:round;stroke-linejoin:round;stroke-miterlimit:10;}
	.st51{fill:#FFFFFF;stroke:#2A4758;stroke-width:0.4695;stroke-linecap:round;stroke-miterlimit:10;}
	.st52{opacity:0.3;}
	.st53{fill:none;stroke:#D8AE64;stroke-width:0.5315;stroke-linecap:round;stroke-linejoin:round;stroke-miterlimit:10;}
	.st54{fill:none;stroke:#EFD09E;stroke-width:26;stroke-miterlimit:10;}
	.st55{fill:none;stroke:#EFD09E;stroke-width:26;stroke-linecap:round;stroke-miterlimit:10;}
	.st56{fill:#A05258;stroke:#D8AE64;stroke-width:26;stroke-linecap:round;stroke-miterlimit:10;}
	.st57{fill:none;stroke:#2A4758;stroke-width:26;stroke-miterlimit:10;}
	.st58{fill:#EFD09E;stroke:#F95A61;stroke-width:26;stroke-miterlimit:10;}
	.st59{fill:none;stroke:#F95A61;stroke-width:26;stroke-miterlimit:10;}
	.st60{fill:none;stroke:#F15A24;stroke-width:10;stroke-miterlimit:10;}
	.st61{fill:none;stroke:#F15A24;stroke-width:10;stroke-miterlimit:10;stroke-dasharray:12.0461,12.0461;}
	.st62{fill:none;stroke:#F15A24;stroke-width:10;stroke-miterlimit:10;stroke-dasharray:11.2667,11.2667;}
	.st63{fill:none;stroke:#F15A24;stroke-width:2.6981;stroke-miterlimit:10;}
	.st64{fill:none;stroke:#F15A24;stroke-width:2.6981;stroke-miterlimit:10;stroke-dasharray:3.188,3.188;}
	.st65{fill:none;stroke:#F15A24;stroke-width:2.6981;stroke-miterlimit:10;stroke-dasharray:3.2207,3.2207;}
	.st66{fill:none;stroke:#F15A24;stroke-width:13.146;stroke-miterlimit:10;}
	.st67{fill:none;stroke:#F15A24;stroke-width:13.146;stroke-miterlimit:10;stroke-dasharray:15.8152,15.8152;}
	.st68{fill:none;stroke:#F15A24;stroke-width:13.146;stroke-miterlimit:10;stroke-dasharray:14.8316,14.8316;}
	.st69{fill:none;stroke:#D8AE64;stroke-width:6;stroke-linecap:round;stroke-miterlimit:10;}
	.st70{fill:none;stroke:#F95A61;stroke-width:3;stroke-miterlimit:10;}
	.st71{fill:#FFFFFF;stroke:#D8AE64;stroke-width:3.6755;stroke-miterlimit:10;}
	.st72{fill:none;stroke:#D8AE64;stroke-width:2.4503;stroke-linecap:round;stroke-miterlimit:10;}
	.st73{fill:none;stroke:#D8AE64;stroke-width:2.4503;stroke-linecap:round;stroke-linejoin:round;stroke-miterlimit:10;}
	.st74{fill:#FFFFFF;stroke:#2A4758;stroke-width:0.6524;stroke-linecap:round;stroke-miterlimit:10;}
	.st75{fill:none;stroke:#EFD09E;stroke-width:3;stroke-miterlimit:10;}
	.st76{fill:none;stroke:#EFD09E;stroke-width:3;stroke-linecap:round;stroke-miterlimit:10;}
	.st77{fill:#A05258;stroke:#D8AE64;stroke-width:3;stroke-linecap:round;stroke-miterlimit:10;}
	.st78{fill:none;stroke:#D8AE64;stroke-width:3.0248;stroke-linecap:round;stroke-miterlimit:10;}
	.st79{fill:#EFD09E;stroke:#F95A61;stroke-width:3;stroke-miterlimit:10;}
	.st80{fill:none;stroke:#A05258;stroke-width:3;stroke-linecap:round;stroke-miterlimit:10;}
	.st81{fill:none;stroke:#A05258;stroke-linecap:round;stroke-linejoin:round;stroke-miterlimit:10;}
	.st82{fill:none;stroke:#49707F;stroke-width:3;stroke-miterlimit:10;}
	.st83{fill:none;stroke:#D8AE64;stroke-width:2;stroke-linecap:round;stroke-linejoin:round;stroke-miterlimit:10;}
	.st84{fill:none;stroke:#F95A61;stroke-width:4;stroke-linecap:square;stroke-miterlimit:10;}
	.st85{opacity:0.35;fill:#2A4758;}
	.st86{fill:none;stroke:#F95A61;stroke-width:4;stroke-miterlimit:10;}
	.st87{opacity:0.5;fill:#FFFFFF;}
</style>
<polyline id="XMLID_2238_" class="st5" points="93.1,59 93.1,71 72.6,71 72.6,59 "/>
<polyline id="XMLID_2237_" class="st1" points="148.4,59 148.4,71 127.9,71 127.9,59 "/>
<circle id="XMLID_2236_" class="st0" cx="55.2" cy="58.8" r="10.2"/>
<path id="XMLID_2234_" class="st1" d="M45,58.8l6-6.2c0,0,5.3,6.2,14.5,6.2c0-5.6-4.6-10.2-10.2-10.2S45,53.2,45,58.8z"/>
<circle id="XMLID_2233_" class="st0" cx="82.8" cy="58.8" r="10.2"/>
<path id="XMLID_2231_" class="st5" d="M72.6,58.8l6-6.2c0,0,5.3,6.2,14.5,6.2c0-5.6-4.6-10.2-10.2-10.2
	C77.2,48.6,72.6,53.2,72.6,58.8z"/>
<circle id="XMLID_2230_" class="st1" cx="110.5" cy="58.8" r="10.2"/>
<path id="XMLID_2228_" class="st16" d="M100.3,58.8l6-6.2c0,0,5.3,6.2,14.5,6.2c0-5.6-4.6-10.2-10.2-10.2S100.3,53.2,100.3,58.8z"/>
<circle id="XMLID_2227_" class="st1" cx="51.4" cy="46.7" r="5.1"/>
<circle id="XMLID_2226_" class="st16" cx="106.7" cy="46.7" r="5.1"/>
<circle id="XMLID_2225_" class="st0" cx="138.2" cy="58.8" r="10.2"/>
<path id="XMLID_2223_" class="st1" d="M127.9,58.8l6-6.2c0,0,5.3,6.2,14.5,6.2c0-5.6-4.6-10.2-10.2-10.2
	C132.5,48.6,127.9,53.2,127.9,58.8z"/>
<circle id="XMLID_2222_" class="st1" cx="165.8" cy="58.8" r="10.2"/>
<path id="XMLID_2220_" class="st5" d="M155.6,58.8l6-6.2c0,0,5.3,6.2,14.5,6.2c0-5.6-4.6-10.2-10.2-10.2
	C160.2,48.6,155.6,53.2,155.6,58.8z"/>
<circle id="XMLID_2219_" class="st5" cx="162" cy="46.7" r="5.1"/>
<path id="XMLID_2218_" class="st5" d="M176.6,77.1l-7.9,21.3h-5.8L155,77.1c0,0,2.5-4.2,11-4.2C174.5,72.9,176.6,77.1,176.6,77.1z"
	/>
<path id="XMLID_2217_" class="st1" d="M149,77.1l-7.9,21.3h-5.8l-7.9-21.3c0,0,2.5-4.2,11-4.2S149,77.1,149,77.1z"/>
<path id="XMLID_2216_" class="st16" d="M121.3,77.1l-7.9,21.3h-5.8l-7.9-21.3c0,0,2.5-4.2,11-4.2S121.3,77.1,121.3,77.1z"/>
<path id="XMLID_2215_" class="st5" d="M93.7,77.1l-7.9,21.3h-5.8L72,77.1c0,0,2.5-4.2,11-4.2S93.7,77.1,93.7,77.1z"/>
<path id="XMLID_1223_" class="st1" d="M66,77.1l-7.9,21.3h-5.8l-7.9-21.3c0,0,2.5-4.2,11-4.2S66,77.1,66,77.1z"/>
<polyline class="st86" points="48.1,72.9 55.2,84.2 62.6,72.9 "/>
<circle class="st0" cx="55.2" cy="84.2" r="4.4"/>
<polyline class="st26" points="75.7,72.9 82.8,84.2 90.2,72.9 "/>
<circle class="st0" cx="82.8" cy="84.2" r="4.4"/>
<polyline class="st26" points="103.4,72.9 110.5,84.2 117.9,72.9 "/>
<circle class="st0" cx="110.5" cy="84.2" r="4.4"/>
<polyline class="st86" points="131.1,72.9 138.2,84.2 145.5,72.9 "/>
<circle class="st0" cx="138.2" cy="84.2" r="4.4"/>
<polyline class="st26" points="158.7,72.9 165.8,84.2 173.2,72.9 "/>
<circle class="st0" cx="165.8" cy="84.2" r="4.4"/>
<path class="st87" d="M58.3,81.1c-1.7-1.7-4.5-1.7-6.2,0c-1.7,1.7-1.7,4.5,0,6.2"/>
<path class="st87" d="M107.4,87.3c-1.7-1.7-1.7-4.5,0-6.2c1.7-1.7,4.5-1.7,6.2,0"/>
<path class="st87" d="M79.8,87.3c-1.7-1.7-1.7-4.5,0-6.2c1.7-1.7,4.5-1.7,6.2,0"/>
<path class="st87" d="M135.1,87.3c-1.7-1.7-1.7-4.5,0-6.2c1.7-1.7,4.5-1.7,6.2,0"/>
<path class="st87" d="M162.7,87.3c-1.7-1.7-1.7-4.5,0-6.2c1.7-1.7,4.5-1.7,6.2,0"/>
</svg>
