<?xml version="1.0" encoding="utf-8"?>
<!-- Generator: Adobe Illustrator 19.1.0, SVG Export Plug-In . SVG Version: 6.00 Build 0)  -->
<svg version="1.1" id="Layer_1" xmlns="http://www.w3.org/2000/svg" xmlns:xlink="http://www.w3.org/1999/xlink" x="0px" y="0px"
	 viewBox="0 0 220 140" style="enable-background:new 0 0 220 140;" xml:space="preserve">
<style type="text/css">
	.st0{fill:#EFD09E;}
	.st1{fill:#D8AE64;}
	.st2{fill:#FFFFFF;}
	.st3{fill:#FFF3E3;}
	.st4{opacity:0.1;fill:#2A4758;}
	.st5{fill:#2A4758;}
	.st6{opacity:0.4;fill:#FFFFFF;}
	.st7{opacity:0.6;fill:#FFFFFF;}
	.st8{fill:none;stroke:#D8AE64;stroke-miterlimit:10;}
	.st9{fill:#D38A16;}
	.st10{fill:none;stroke:#FFFFFF;stroke-miterlimit:10;}
	.st11{opacity:0.5;fill:#F95A61;}
	.st12{opacity:0.5;fill:none;stroke:#F95A61;stroke-miterlimit:10;}
	.st13{fill:none;stroke:#000000;stroke-miterlimit:10;}
	.st14{opacity:0.7;fill:#FFF3E3;}
	.st15{opacity:0.7;fill:#FFFFFF;}
	.st16{fill:#F95A61;}
	.st17{opacity:0.5;fill:#D8AE64;}
	.st18{fill:#F15A24;}
	.st19{fill:none;stroke:#D8AE64;stroke-width:2;stroke-miterlimit:10;}
	.st20{fill:#A05258;}
	.st21{fill:#2A4758;stroke:#2A4758;stroke-miterlimit:10;}
	.st22{fill:#2A4758;stroke:#FFF3E3;stroke-miterlimit:10;}
	.st23{opacity:0.6;fill:#2A4758;}
	.st24{fill:#49707F;}
	.st25{opacity:0.3;fill:none;stroke:#FFF3E3;stroke-width:7;stroke-miterlimit:10;}
	.st26{fill:none;stroke:#D8AE64;stroke-width:4;stroke-miterlimit:10;}
	.st27{opacity:0.5;}
	.st28{fill:none;stroke:#D8AE64;stroke-width:5;stroke-miterlimit:10;}
	.st29{fill:none;stroke:#2A4758;stroke-width:5;stroke-miterlimit:10;}
	.st30{fill:none;stroke:#F95A61;stroke-width:4;stroke-linecap:round;stroke-miterlimit:10;}
	.st31{opacity:0.4;fill:#D8AE64;}
	.st32{fill:#375868;}
	.st33{fill:none;stroke:#375868;stroke-width:5;stroke-miterlimit:10;}
	.st34{fill:none;stroke:#D8AE64;stroke-width:3;stroke-miterlimit:10;}
	.st35{opacity:0.3;fill:none;stroke:#2A4758;stroke-miterlimit:10;}
	.st36{fill:none;stroke:#A05258;stroke-miterlimit:10;}
	.st37{fill:none;stroke:#A05258;stroke-miterlimit:10;stroke-dasharray:2,2;}
	.st38{fill:none;stroke:#F95A61;stroke-miterlimit:10;}
	.st39{fill:none;stroke:#F95A61;stroke-miterlimit:10;stroke-dasharray:2,2;}
	.st40{opacity:0.4;fill:none;stroke:#2A4758;stroke-width:3;stroke-miterlimit:10;}
	.st41{opacity:0.4;}
	.st42{fill:none;stroke:#D8AE64;stroke-width:3;stroke-miterlimit:10;stroke-dasharray:2,2;}
	.st43{opacity:0.6;fill:#D8AE64;}
	.st44{opacity:0.2;fill:none;stroke:#2A4758;stroke-width:3;stroke-miterlimit:10;}
	.st45{fill:none;stroke:#2A4758;stroke-width:3;stroke-miterlimit:10;}
	.st46{opacity:0.7;}
	.st47{opacity:0.2;fill:#2A4758;}
	.st48{opacity:0.2;fill:none;stroke:#2A4758;stroke-width:0.4695;stroke-linecap:round;stroke-miterlimit:10;}
	.st49{opacity:0.2;}
	.st50{fill:none;stroke:#2A4758;stroke-width:0.4695;stroke-linecap:round;stroke-linejoin:round;stroke-miterlimit:10;}
	.st51{fill:#FFFFFF;stroke:#2A4758;stroke-width:0.4695;stroke-linecap:round;stroke-miterlimit:10;}
	.st52{opacity:0.3;}
	.st53{fill:none;stroke:#D8AE64;stroke-width:0.5315;stroke-linecap:round;stroke-linejoin:round;stroke-miterlimit:10;}
	.st54{fill:none;stroke:#EFD09E;stroke-width:26;stroke-miterlimit:10;}
	.st55{fill:none;stroke:#EFD09E;stroke-width:26;stroke-linecap:round;stroke-miterlimit:10;}
	.st56{fill:#A05258;stroke:#D8AE64;stroke-width:26;stroke-linecap:round;stroke-miterlimit:10;}
	.st57{fill:none;stroke:#2A4758;stroke-width:26;stroke-miterlimit:10;}
	.st58{fill:#EFD09E;stroke:#F95A61;stroke-width:26;stroke-miterlimit:10;}
	.st59{fill:none;stroke:#F95A61;stroke-width:26;stroke-miterlimit:10;}
	.st60{fill:none;stroke:#F15A24;stroke-width:10;stroke-miterlimit:10;}
	.st61{fill:none;stroke:#F15A24;stroke-width:10;stroke-miterlimit:10;stroke-dasharray:12.0461,12.0461;}
	.st62{fill:none;stroke:#F15A24;stroke-width:10;stroke-miterlimit:10;stroke-dasharray:11.2667,11.2667;}
	.st63{fill:none;stroke:#F15A24;stroke-width:2.6981;stroke-miterlimit:10;}
	.st64{fill:none;stroke:#F15A24;stroke-width:2.6981;stroke-miterlimit:10;stroke-dasharray:3.188,3.188;}
	.st65{fill:none;stroke:#F15A24;stroke-width:2.6981;stroke-miterlimit:10;stroke-dasharray:3.2207,3.2207;}
	.st66{fill:none;stroke:#F15A24;stroke-width:13.146;stroke-miterlimit:10;}
	.st67{fill:none;stroke:#F15A24;stroke-width:13.146;stroke-miterlimit:10;stroke-dasharray:15.8152,15.8152;}
	.st68{fill:none;stroke:#F15A24;stroke-width:13.146;stroke-miterlimit:10;stroke-dasharray:14.8316,14.8316;}
	.st69{fill:none;stroke:#D8AE64;stroke-width:6;stroke-linecap:round;stroke-miterlimit:10;}
	.st70{fill:none;stroke:#F95A61;stroke-width:3;stroke-miterlimit:10;}
	.st71{fill:#FFFFFF;stroke:#D8AE64;stroke-width:3.6755;stroke-miterlimit:10;}
	.st72{fill:none;stroke:#D8AE64;stroke-width:2.4503;stroke-linecap:round;stroke-miterlimit:10;}
	.st73{fill:none;stroke:#D8AE64;stroke-width:2.4503;stroke-linecap:round;stroke-linejoin:round;stroke-miterlimit:10;}
	.st74{fill:#FFFFFF;stroke:#2A4758;stroke-width:0.6524;stroke-linecap:round;stroke-miterlimit:10;}
	.st75{fill:none;stroke:#EFD09E;stroke-width:3;stroke-miterlimit:10;}
	.st76{fill:none;stroke:#EFD09E;stroke-width:3;stroke-linecap:round;stroke-miterlimit:10;}
	.st77{fill:#A05258;stroke:#D8AE64;stroke-width:3;stroke-linecap:round;stroke-miterlimit:10;}
	.st78{fill:none;stroke:#D8AE64;stroke-width:3.0248;stroke-linecap:round;stroke-miterlimit:10;}
	.st79{fill:#EFD09E;stroke:#F95A61;stroke-width:3;stroke-miterlimit:10;}
	.st80{fill:none;stroke:#A05258;stroke-width:3;stroke-linecap:round;stroke-miterlimit:10;}
	.st81{fill:none;stroke:#A05258;stroke-linecap:round;stroke-linejoin:round;stroke-miterlimit:10;}
	.st82{fill:none;stroke:#49707F;stroke-width:3;stroke-miterlimit:10;}
	.st83{fill:none;stroke:#D8AE64;stroke-width:2;stroke-linecap:round;stroke-linejoin:round;stroke-miterlimit:10;}
	.st84{fill:none;stroke:#F95A61;stroke-width:4;stroke-linecap:square;stroke-miterlimit:10;}
	.st85{opacity:0.35;fill:#2A4758;}
	.st86{fill:none;stroke:#F95A61;stroke-width:4;stroke-miterlimit:10;}
	.st87{opacity:0.5;fill:#FFFFFF;}
</style>
<g>
	<g id="XMLID_2644_">
		<polyline id="XMLID_2649_" class="st16" points="116.6,39 116.6,49 101.4,49 101.4,39 		"/>
		<path id="XMLID_2648_" class="st16" d="M117.1,54l-5.9,16h-4.3L101,54c0,0,1.9-3.1,8.2-3.1S117.1,54,117.1,54z"/>
		<circle id="XMLID_2647_" class="st1" cx="109" cy="39.5" r="7.6"/>
		<path id="XMLID_2645_" class="st16" d="M101.4,39.5l4.4-4.6c0,0,3.9,4.6,10.7,4.6c0-4.2-3.4-7.6-7.6-7.6
			C104.8,31.9,101.4,35.3,101.4,39.5z"/>
	</g>
	<path id="XMLID_2643_" class="st5" d="M148.2,54l5.9,16h4.3l5.9-16c0,0-1.9-3.1-8.2-3.1C149.8,50.9,148.2,54,148.2,54z"/>
	<circle id="XMLID_2642_" class="st0" cx="156.2" cy="39.5" r="7.6"/>
	<path id="XMLID_2640_" class="st5" d="M148.7,39.5l4.4-4.6c0,0,3.9,4.6,10.7,4.6c0-4.2-3.4-7.6-7.6-7.6S148.7,35.3,148.7,39.5z"/>
	<circle id="XMLID_2639_" class="st5" cx="156" cy="29.8" r="3.8"/>
	<path id="XMLID_2638_" class="st5" d="M56.3,54l5.9,16h4.3l5.9-16c0,0-1.9-3.1-8.2-3.1S56.3,54,56.3,54z"/>
	<circle id="XMLID_2637_" class="st1" cx="64.4" cy="39.5" r="7.6"/>
	<path id="XMLID_2636_" class="st5" d="M56.8,39.5l4.4-4.6c0,0,3.9,4.6,10.7,4.6c0-4.2-3.4-7.6-7.6-7.6
		C60.2,31.9,56.8,35.3,56.8,39.5z"/>
	<polygon id="XMLID_2635_" class="st1" points="186.3,67.8 201.5,81.4 190.4,77.2 183.8,71.9 	"/>
	<polygon id="XMLID_2634_" class="st1" points="171,67.8 155.7,81.4 166.9,77.2 173.4,71.9 	"/>
	<polygon id="XMLID_2633_" class="st1" points="139.8,67.8 155.1,81.4 143.9,77.2 137.4,71.9 	"/>
	<polygon id="XMLID_2632_" class="st1" points="124.5,67.8 109.3,81.4 120.4,77.2 127,71.9 	"/>
	<polyline id="XMLID_2631_" class="st16" points="139.3,53 139.3,63 124.1,63 124.1,53 	"/>
	<polyline id="XMLID_2630_" class="st5" points="186.5,53 186.5,63 171.4,63 171.4,53 	"/>
	<path id="XMLID_2629_" class="st16" d="M139.8,68l-5.9,16h-4.3l-5.9-16c0,0,1.9-3.1,8.2-3.1C138.2,64.9,139.8,68,139.8,68z"/>
	<path id="XMLID_2628_" class="st16" d="M140.2,86.9l1.1,27.2L132,91h0l-9.4,23l1.1-27.1c0,0,2-4.5,8.2-4.5
		C138.2,82.4,140.2,86.9,140.2,86.9z"/>
	<circle id="XMLID_2627_" class="st1" cx="131.7" cy="53.6" r="7.6"/>
	<path id="XMLID_2625_" class="st16" d="M124.1,53.6l4.4-4.6c0,0,3.9,4.6,10.7,4.6c0-4.2-3.4-7.6-7.6-7.6
		C127.5,46,124.1,49.4,124.1,53.6z"/>
	<g id="XMLID_2616_">
		<polygon id="XMLID_2624_" class="st1" points="49,67.8 64.3,81.4 53.1,77.2 46.6,71.9 		"/>
		<polygon id="XMLID_2623_" class="st1" points="33.7,67.8 18.5,81.4 29.6,77.2 36.2,71.9 		"/>
		<polyline id="XMLID_2622_" class="st16" points="48.5,53 48.5,63 33.3,63 33.3,53 		"/>
		<path id="XMLID_2621_" class="st16" d="M49,68l-5.9,16h-4.3l-5.9-16c0,0,1.9-3.1,8.2-3.1S49,68,49,68z"/>
		<path id="XMLID_2620_" class="st16" d="M49.4,86.9l1.1,27.2l-9.4-23h0l-9.4,23l1.1-27.1c0,0,2-4.5,8.2-4.5S49.4,86.9,49.4,86.9z"
			/>
		<circle id="XMLID_2619_" class="st1" cx="40.9" cy="53.6" r="7.6"/>
		<path id="XMLID_2617_" class="st16" d="M33.3,53.6l4.4-4.6c0,0,3.9,4.6,10.7,4.6c0-4.2-3.4-7.6-7.6-7.6S33.3,49.4,33.3,53.6z"/>
	</g>
	<path id="XMLID_2615_" class="st5" d="M170.9,68l5.9,16h4.3l5.9-16c0,0-1.9-3.1-8.2-3.1C172.5,64.9,170.9,68,170.9,68z"/>
	<path id="XMLID_2614_" class="st5" d="M170.5,86.9l-1.1,27.2l9.4-23h0l9.4,23l-1.1-27.1c0,0-2-4.5-8.2-4.5S170.5,86.9,170.5,86.9z"
		/>
	<circle id="XMLID_2613_" class="st1" cx="178.9" cy="53.6" r="7.6"/>
	<path id="XMLID_2607_" class="st5" d="M171.4,53.6l4.4-4.6c0,0,3.9,4.6,10.7,4.6c0-4.2-3.4-7.6-7.6-7.6S171.4,49.4,171.4,53.6z"/>
	<polygon id="XMLID_2605_" class="st0" points="94.4,67.8 109.7,81.4 98.5,77.2 92,71.9 	"/>
	<polygon id="XMLID_2583_" class="st0" points="79.1,67.8 63.9,81.4 75,77.2 81.6,71.9 	"/>
	<path id="XMLID_2560_" class="st5" d="M79,68l5.9,16h4.3l5.9-16c0,0-1.9-3.1-8.2-3.1S79,68,79,68z"/>
	<path id="XMLID_2558_" class="st5" d="M78.6,86.9L77.5,114l9.4-23h0l9.4,23l-1.1-27.1c0,0-2-4.5-8.2-4.5
		C80.6,82.4,78.6,86.9,78.6,86.9z"/>
	<circle id="XMLID_2556_" class="st0" cx="87.1" cy="53.6" r="7.6"/>
	<path id="XMLID_2552_" class="st5" d="M79.5,53.6l4.4-4.6c0,0,3.9,4.6,10.7,4.6c0-4.2-3.4-7.6-7.6-7.6C82.9,46,79.5,49.4,79.5,53.6
		z"/>
	<circle id="XMLID_2214_" class="st5" cx="86.8" cy="43.8" r="3.8"/>
</g>
</svg>
