<?xml version="1.0" encoding="utf-8"?>
<!-- Generator: Adobe Illustrator 19.1.0, SVG Export Plug-In . SVG Version: 6.00 Build 0)  -->
<svg version="1.1" id="Layer_1" xmlns="http://www.w3.org/2000/svg" xmlns:xlink="http://www.w3.org/1999/xlink" x="0px" y="0px"
	 viewBox="0 0 465 355" style="enable-background:new 0 0 465 355;" xml:space="preserve">
<style type="text/css">
	.st0{fill:#EFD09E;}
	.st1{fill:#D8AE64;}
	.st2{fill:#FFFFFF;}
	.st3{fill:#FFF3E3;}
	.st4{opacity:0.1;fill:#2A4758;}
	.st5{fill:#2A4758;}
	.st6{opacity:0.4;fill:#FFFFFF;}
	.st7{opacity:0.6;fill:#FFFFFF;}
	.st8{fill:none;stroke:#D8AE64;stroke-miterlimit:10;}
	.st9{fill:#D38A16;}
	.st10{fill:none;stroke:#FFFFFF;stroke-miterlimit:10;}
	.st11{opacity:0.5;fill:#F95A61;}
	.st12{opacity:0.5;fill:none;stroke:#F95A61;stroke-miterlimit:10;}
	.st13{fill:none;stroke:#000000;stroke-miterlimit:10;}
	.st14{opacity:0.7;fill:#FFF3E3;}
	.st15{opacity:0.7;fill:#FFFFFF;}
	.st16{fill:#F95A61;}
	.st17{opacity:0.5;fill:#D8AE64;}
	.st18{fill:#F15A24;}
	.st19{fill:none;stroke:#D8AE64;stroke-width:2;stroke-miterlimit:10;}
	.st20{fill:#A05258;}
	.st21{fill:#2A4758;stroke:#2A4758;stroke-miterlimit:10;}
	.st22{fill:#2A4758;stroke:#FFF3E3;stroke-miterlimit:10;}
	.st23{opacity:0.6;fill:#2A4758;}
	.st24{fill:#49707F;}
	.st25{opacity:0.3;fill:none;stroke:#FFF3E3;stroke-width:7;stroke-miterlimit:10;}
	.st26{fill:none;stroke:#D8AE64;stroke-width:4;stroke-miterlimit:10;}
	.st27{opacity:0.5;}
	.st28{fill:none;stroke:#D8AE64;stroke-width:5;stroke-miterlimit:10;}
	.st29{fill:none;stroke:#2A4758;stroke-width:5;stroke-miterlimit:10;}
	.st30{fill:none;stroke:#F95A61;stroke-width:4;stroke-linecap:round;stroke-miterlimit:10;}
	.st31{opacity:0.4;fill:#D8AE64;}
	.st32{fill:#375868;}
	.st33{fill:none;stroke:#375868;stroke-width:5;stroke-miterlimit:10;}
	.st34{fill:none;stroke:#D8AE64;stroke-width:3;stroke-miterlimit:10;}
	.st35{opacity:0.3;fill:none;stroke:#2A4758;stroke-miterlimit:10;}
	.st36{fill:none;stroke:#A05258;stroke-miterlimit:10;}
	.st37{fill:none;stroke:#A05258;stroke-miterlimit:10;stroke-dasharray:2,2;}
	.st38{fill:none;stroke:#F95A61;stroke-miterlimit:10;}
	.st39{fill:none;stroke:#F95A61;stroke-miterlimit:10;stroke-dasharray:2,2;}
	.st40{opacity:0.4;fill:none;stroke:#2A4758;stroke-width:3;stroke-miterlimit:10;}
	.st41{opacity:0.4;}
	.st42{fill:none;stroke:#D8AE64;stroke-width:3;stroke-miterlimit:10;stroke-dasharray:2,2;}
	.st43{opacity:0.6;fill:#D8AE64;}
	.st44{opacity:0.2;fill:none;stroke:#2A4758;stroke-width:3;stroke-miterlimit:10;}
	.st45{fill:none;stroke:#2A4758;stroke-width:3;stroke-miterlimit:10;}
	.st46{opacity:0.7;}
	.st47{opacity:0.2;fill:#2A4758;}
	.st48{opacity:0.2;fill:none;stroke:#2A4758;stroke-width:0.4695;stroke-linecap:round;stroke-miterlimit:10;}
	.st49{opacity:0.2;}
	.st50{fill:none;stroke:#2A4758;stroke-width:0.4695;stroke-linecap:round;stroke-linejoin:round;stroke-miterlimit:10;}
	.st51{fill:#FFFFFF;stroke:#2A4758;stroke-width:0.4695;stroke-linecap:round;stroke-miterlimit:10;}
	.st52{opacity:0.3;}
	.st53{fill:none;stroke:#D8AE64;stroke-width:0.5315;stroke-linecap:round;stroke-linejoin:round;stroke-miterlimit:10;}
	.st54{fill:none;stroke:#EFD09E;stroke-width:26;stroke-miterlimit:10;}
	.st55{fill:none;stroke:#EFD09E;stroke-width:26;stroke-linecap:round;stroke-miterlimit:10;}
	.st56{fill:#A05258;stroke:#D8AE64;stroke-width:26;stroke-linecap:round;stroke-miterlimit:10;}
	.st57{fill:none;stroke:#2A4758;stroke-width:26;stroke-miterlimit:10;}
	.st58{fill:#EFD09E;stroke:#F95A61;stroke-width:26;stroke-miterlimit:10;}
	.st59{fill:none;stroke:#F95A61;stroke-width:26;stroke-miterlimit:10;}
	.st60{fill:none;stroke:#F15A24;stroke-width:10;stroke-miterlimit:10;}
	.st61{fill:none;stroke:#F15A24;stroke-width:10;stroke-miterlimit:10;stroke-dasharray:12.0461,12.0461;}
	.st62{fill:none;stroke:#F15A24;stroke-width:10;stroke-miterlimit:10;stroke-dasharray:11.2667,11.2667;}
	.st63{fill:none;stroke:#F15A24;stroke-width:2.6981;stroke-miterlimit:10;}
	.st64{fill:none;stroke:#F15A24;stroke-width:2.6981;stroke-miterlimit:10;stroke-dasharray:3.188,3.188;}
	.st65{fill:none;stroke:#F15A24;stroke-width:2.6981;stroke-miterlimit:10;stroke-dasharray:3.2207,3.2207;}
	.st66{fill:none;stroke:#F15A24;stroke-width:13.146;stroke-miterlimit:10;}
	.st67{fill:none;stroke:#F15A24;stroke-width:13.146;stroke-miterlimit:10;stroke-dasharray:15.8152,15.8152;}
	.st68{fill:none;stroke:#F15A24;stroke-width:13.146;stroke-miterlimit:10;stroke-dasharray:14.8316,14.8316;}
	.st69{fill:none;stroke:#D8AE64;stroke-width:6;stroke-linecap:round;stroke-miterlimit:10;}
	.st70{fill:none;stroke:#F95A61;stroke-width:3;stroke-miterlimit:10;}
	.st71{fill:#FFFFFF;stroke:#D8AE64;stroke-width:3.6755;stroke-miterlimit:10;}
	.st72{fill:none;stroke:#D8AE64;stroke-width:2.4503;stroke-linecap:round;stroke-miterlimit:10;}
	.st73{fill:none;stroke:#D8AE64;stroke-width:2.4503;stroke-linecap:round;stroke-linejoin:round;stroke-miterlimit:10;}
	.st74{fill:#FFFFFF;stroke:#2A4758;stroke-width:0.6524;stroke-linecap:round;stroke-miterlimit:10;}
	.st75{fill:none;stroke:#EFD09E;stroke-width:3;stroke-miterlimit:10;}
	.st76{fill:none;stroke:#EFD09E;stroke-width:3;stroke-linecap:round;stroke-miterlimit:10;}
	.st77{fill:#A05258;stroke:#D8AE64;stroke-width:3;stroke-linecap:round;stroke-miterlimit:10;}
	.st78{fill:none;stroke:#D8AE64;stroke-width:3.0248;stroke-linecap:round;stroke-miterlimit:10;}
	.st79{fill:#EFD09E;stroke:#F95A61;stroke-width:3;stroke-miterlimit:10;}
	.st80{fill:none;stroke:#A05258;stroke-width:3;stroke-linecap:round;stroke-miterlimit:10;}
	.st81{fill:none;stroke:#A05258;stroke-linecap:round;stroke-linejoin:round;stroke-miterlimit:10;}
	.st82{fill:none;stroke:#49707F;stroke-width:3;stroke-miterlimit:10;}
	.st83{fill:none;stroke:#D8AE64;stroke-width:2;stroke-linecap:round;stroke-linejoin:round;stroke-miterlimit:10;}
	.st84{fill:none;stroke:#F95A61;stroke-width:4;stroke-linecap:square;stroke-miterlimit:10;}
	.st85{opacity:0.35;fill:#2A4758;}
	.st86{fill:none;stroke:#F95A61;stroke-width:4;stroke-miterlimit:10;}
	.st87{opacity:0.5;fill:#FFFFFF;}
</style>
<g id="XMLID_2843_">
	<path id="XMLID_2844_" class="st0" d="M459.5,75c-2.1-2.7-4.8-5.1-6.7-7.9c-1.2-1.7-1.5-4.1-2.2-6.2c-2.1-6.7-4.6-7.7-10.3-4
		c-1.1-0.6-2.1-1.1-4.3-2.3c-1.1,6.2-2.7,11.7-2.9,17.2c-0.2,7.6-4,13.7-11.3,15.7c-5.2,1.4-10.4,3.1-15.8,3.9
		c-4.9,0.7-7.5,3.7-9.9,7.3c-1.5,2.3-2.7,4.7-4.1,7.2c0.7,1.3,1.5,3,2.1,4.2c-3.6,4.9-8.2,5.9-13.5,5.5c-1.9-0.1-4.1,0.6-5.8,1.5
		c-0.9,0.5-1.9,2.8-1.6,3.3c2.9,3.7,0.2,5.8-2.2,7.6c-4.7,3.7-9.8,6.9-14.5,10.7c-5.9,4.8-9.1,5.3-16,0.9c1.7-3,3.5-6,5.3-9
		c0.3-0.6,0.8-1.4,0.7-1.9c-0.8-4-1.5-8-2.9-11.8c-1-2.9-3.3-3.1-5.3-0.5c-1,1.3-2.1,2.5-3.1,3.8c-0.5-0.3-1-0.6-1.5-0.9
		c0.9-1.8,1.7-3.7,2.6-5.5c2.8-5,1-10.9-3.6-13.5c-0.6,0-1.2,0.1-1.9,0.1c-7.9,0-13.8-3-17.9-7.5c-3.7-0.6-7.4-1.4-10.9-2.7
		c-3.9-1.5-7.5-3.3-10.8-5.5c-2.6,1.7-5.1,3.5-7.7,5.2c-3.9,2.7-5.3,2.4-7.7-1.8c-2.5,1.1-5,2.2-7.6,3.3c-0.3-0.5-0.6-1-0.9-1.4
		c2.5-1.9,5.1-3.9,7.6-5.8c-7.2-0.4-14.4-3.9-19.4-11.7c-0.3-0.5-0.7-0.9-1-1.4c-1.8,0.3-3.5-0.1-4.8-0.9c-2.3,0-4.6-0.4-6.9-1.3
		c-2.1-0.8-4.1-1.6-6.2-2.3c-66.3-0.4-131.3-9.4-195.4-27.2v13.5c-1.2-1.7-1.9-3.6-3.3-4.4c-4-2.3-8.2-4.2-13.2-6.7
		c0.2,3.3,0.3,6.4,0.4,9.4c0.3,13.9-4.4,26.5-10.2,38.7c-3.5,7.3-8.5,13.9-7.3,22.6c0.7,4.8-1.5,8.6-4.3,12.4
		c-1.2,1.6-1,4.5-0.9,6.8c0.1,2.4,1.8,5.2,0.9,7c-3.4,7.2,3.5,12.4,2.9,18.9c0,0,0.4,0,0.4,0.1c0.5,2,1,4,1.4,6
		c0.3,1.8-0.3,4.4,0.7,5.3c2.5,2.3,4.4,3.8,0.9,6.8c-0.4,0.4-0.2,2,0.2,2.9c1.7,3.6,3.8,6.9,5.2,10.6c0.9,2.2,1.7,5.1,1,7.2
		c-1.3,3.8,0.3,4.8,3.4,5.9c2.5,0.9,5.6,2,6.9,4c2.1,3.2,5.6,4.4,8,7.2c3.2,3.7,6.7,6.7,6.5,12c-0.1,2.8,0.8,4,4,4.4
		c7.7,0.8,15.5,0.6,22.2,6.6c5.6,5,13.3,7.5,19.5,11.9c10.8,7.5,23.4,6.2,35.4,8.8c0.5-2.1,0.8-3.6,1.1-5.1c4,0.5,7.7,0.7,11.2,1.5
		c2,0.5,4,1.8,5.5,3.2c3.2,3,6.3,6.1,9,9.5c1.9,2.4,3,5.4,4.4,8.1c1.3,2.3,2.1,5.2,3.9,6.9c2.9,2.7,6.4,4.6,10.2,7.1
		c1.4-1.5,3.1-2.7,3.7-4.3c1-2.9,2.7-5.1,5.7-5c2.8,0.1,6.3,0.5,8.2,2.2c3.1,2.8,5.2,6.7,7.6,10.2c2.8,4.2,5.5,8.5,8.2,12.7
		c0.5,0.8,1,1.7,1.2,2.7c1.1,6.2,3.1,11.7,10,13.8c3,0.9,5.9,2.2,9,3.1c1.5,0.4,3.1,0.3,4.2,0.4c-1-4.7-2.6-8.6-2.3-12.3
		c0.8-9.1,6.1-15,14.7-18.1c2.7-1,5.7-2.3,7.5-4.4c2.3-2.8,4.1-5.1,8.2-6c5.6-1.2,10.9-2.8,16.8-0.8c1.9,0.6,4.3-0.6,6.5-1
		c0-0.5,0-0.9,0-1.4c5.3,3,9.8,8.1,17.3,6c2-4.2,5.1-7.8,9.3-10.2c-0.1-0.7-0.5-1.6-1.6-2.5c4.4-1,9.5-3.9,12.1-2.4
		c4.4,2.6,7.2,0,10.5-0.8c5-1.2,9,0.6,13.1,2.7c1.1,0.6,1.6,2.2,2.9,4.1c2.6-1.2,6.2-2,8.3-4.2c4-4,6.4-1,9.1,1.1
		c1.9,1.6,3.3,4.3,5.4,4.9c4.2,1.2,4.8,4.6,3.9,7.1c-1.9,5.2,1,8.6,3.2,12.2c2.1,3.3,5,6.1,7.5,9.2c1.4,1.7,2.3,4.8,3.9,5.2
		c3.6,1,4.8,3.5,6.4,6.2c0.4,0.7,1.7,1.2,2.5,1.1c3.9-0.7,5.8-2.3,6.2-7.2c0.5-6.3,1-12-3-17.5c-2.2-3-3.6-6.7-5.2-10.1
		c-0.8-1.7-0.7-4.1-1.9-5.2c-4.2-4-6.1-9.2-8.8-14c-5.2-9.2,0.7-23,6.4-28.3c3.6-3.4,7.9-6.3,9.1-11.9c0.5-2,3.8-3.4,5.8-5.2
		c1.3-1.2,2.5-2.5,3.8-3.7c2.6-2.7,5.2-5.5,7.9-8.2c1.1-1.1,2.5-2,3.7-2.9c-1.3-1.7-2.1-2.8-3-4c3.9-1.3,6.7-3,6-7.2
		c-0.4-0.3-0.7-0.6-1.1-0.9c-1.1-0.4-2.1-0.7-3.6-1.2c0.6-0.3,1.1-0.5,1.6-0.7c-4.1-4.6-6.2-10.7-6.4-16.9c-0.4-2.2-0.7-4.5-1.2-7.2
		c0.6,0.5,1.1,1,1.6,1.4c0.3-1.6,0.7-3.2,1.3-4.7c0-0.1,0-0.2,0-0.4c0-9,5-17,12.2-21.5c-0.1-0.4-0.2-0.9-0.4-1.3
		c4.8-3.4,9.1-6.4,13.3-9.5c-1-1.3-1.6-2.1-2.2-2.8c0.4-0.4,0.6-0.6,0.8-0.7c2.8-2,5.5-4.1,8.3-6c6.3-4-0.6-5.7-1.4-8.5
		c-0.2-0.7-0.7-1.4-0.7-2.1c-0.3-5.6-0.1-11,4.9-15.1c2.6-2.1,4.4-5.2,6.9-7.3c3.4-2.9,7.2-5.4,11.4-8.4
		C461.6,78.6,460.7,76.6,459.5,75z"/>
</g>
<g id="XMLID_2840_">
	<rect id="XMLID_2842_" x="339.5" y="91.5" class="st16" width="16" height="11"/>
	<line id="XMLID_2841_" class="st34" x1="338" y1="126.5" x2="338" y2="91.5"/>
</g>
<g id="XMLID_2837_">
	<rect id="XMLID_2839_" x="335.5" y="105.5" class="st20" width="16" height="11"/>
	<line id="XMLID_2838_" class="st34" x1="334" y1="140.5" x2="334" y2="105.5"/>
</g>
<g id="XMLID_2834_">
	<rect id="XMLID_2836_" x="261.5" y="81.5" class="st16" width="16" height="11"/>
	<line id="XMLID_2835_" class="st34" x1="260" y1="116.5" x2="260" y2="81.5"/>
</g>
<g id="XMLID_2831_">
	<rect id="XMLID_2833_" x="297.5" y="84.5" class="st20" width="16" height="11"/>
	<line id="XMLID_2832_" class="st34" x1="296" y1="119.5" x2="296" y2="84.5"/>
</g>
<g id="XMLID_2828_">
	<rect id="XMLID_2830_" x="244.5" y="55.5" class="st16" width="16" height="11"/>
	<line id="XMLID_2829_" class="st34" x1="243" y1="90.5" x2="243" y2="55.5"/>
</g>
<g id="XMLID_2825_">
	<rect id="XMLID_2827_" x="348.5" y="199.5" class="st16" width="16" height="11"/>
	<line id="XMLID_2826_" class="st34" x1="347" y1="234.5" x2="347" y2="199.5"/>
</g>
<g id="XMLID_2822_">
	<rect id="XMLID_2824_" x="396.5" y="268.5" class="st20" width="16" height="11"/>
	<line id="XMLID_2823_" class="st34" x1="395" y1="303.5" x2="395" y2="268.5"/>
</g>
<g id="XMLID_2819_">
	<rect id="XMLID_2821_" x="371.5" y="260.5" class="st16" width="16" height="11"/>
	<line id="XMLID_2820_" class="st34" x1="370" y1="295.5" x2="370" y2="260.5"/>
</g>
<g id="XMLID_2816_">
	<rect id="XMLID_2818_" x="376.5" y="147.5" class="st20" width="16" height="11"/>
	<line id="XMLID_2817_" class="st34" x1="375" y1="182.5" x2="375" y2="147.5"/>
</g>
<g id="XMLID_2813_">
	<rect id="XMLID_2815_" x="400.5" y="54.5" class="st16" width="16" height="11"/>
	<line id="XMLID_2814_" class="st34" x1="399" y1="89.5" x2="399" y2="54.5"/>
</g>
<g id="XMLID_2810_">
	<rect id="XMLID_2812_" x="195.5" y="141.5" class="st16" width="16" height="11"/>
	<line id="XMLID_2811_" class="st34" x1="194" y1="176.5" x2="194" y2="141.5"/>
</g>
<g id="XMLID_2807_">
	<rect id="XMLID_2809_" x="150.5" y="124.5" class="st20" width="16" height="11"/>
	<line id="XMLID_2808_" class="st34" x1="149" y1="159.5" x2="149" y2="124.5"/>
</g>
<g id="XMLID_2804_">
	<rect id="XMLID_2806_" x="190.5" y="121.5" class="st16" width="16" height="11"/>
	<line id="XMLID_2805_" class="st34" x1="189" y1="156.5" x2="189" y2="121.5"/>
</g>
<g id="XMLID_2801_">
	<rect id="XMLID_2803_" x="437.5" y="88.5" class="st16" width="16" height="11"/>
	<line id="XMLID_2802_" class="st34" x1="436" y1="123.5" x2="436" y2="88.5"/>
</g>
<g id="XMLID_2798_">
	<rect id="XMLID_2800_" x="72.5" y="73.5" class="st16" width="16" height="11"/>
	<line id="XMLID_2799_" class="st34" x1="71" y1="108.5" x2="71" y2="73.5"/>
</g>
<g id="XMLID_2795_">
	<rect id="XMLID_2797_" x="39.5" y="30.5" class="st16" width="16" height="11"/>
	<line id="XMLID_2796_" class="st34" x1="38" y1="65.5" x2="38" y2="30.5"/>
</g>
<g id="XMLID_2792_">
	<rect id="XMLID_2794_" x="48.5" y="49.5" class="st16" width="16" height="11"/>
	<line id="XMLID_2793_" class="st34" x1="47" y1="84.5" x2="47" y2="49.5"/>
</g>
<g id="XMLID_2789_">
	<rect id="XMLID_2791_" x="231.5" y="235.5" class="st16" width="16" height="11"/>
	<line id="XMLID_2790_" class="st34" x1="230" y1="270.5" x2="230" y2="235.5"/>
</g>
<g id="XMLID_2786_">
	<rect id="XMLID_2788_" x="93.5" y="191.5" class="st16" width="16" height="11"/>
	<line id="XMLID_2787_" class="st34" x1="92" y1="226.5" x2="92" y2="191.5"/>
</g>
<g id="XMLID_2783_">
	<rect id="XMLID_2785_" x="242.5" y="253.5" class="st20" width="16" height="11"/>
	<line id="XMLID_2784_" class="st34" x1="241" y1="288.5" x2="241" y2="253.5"/>
</g>
<g id="XMLID_2780_">
	<rect id="XMLID_2782_" x="39.5" y="181.5" class="st20" width="16" height="11"/>
	<line id="XMLID_2781_" class="st34" x1="38" y1="216.5" x2="38" y2="181.5"/>
</g>
<g id="XMLID_2777_">
	<rect id="XMLID_2779_" x="44.5" y="195.5" class="st16" width="16" height="11"/>
	<line id="XMLID_2778_" class="st34" x1="43" y1="230.5" x2="43" y2="195.5"/>
</g>
<g id="XMLID_2774_">
	<rect id="XMLID_2776_" x="14.5" y="117.5" class="st20" width="16" height="11"/>
	<line id="XMLID_2775_" class="st34" x1="13" y1="152.5" x2="13" y2="117.5"/>
</g>
<g id="XMLID_2771_">
	<rect id="XMLID_2773_" x="214.5" y="247.5" class="st20" width="16" height="11"/>
	<line id="XMLID_2772_" class="st34" x1="213" y1="282.5" x2="213" y2="247.5"/>
</g>
<g id="XMLID_2768_">
	<rect id="XMLID_2770_" x="299.5" y="132.5" class="st20" width="16" height="11"/>
	<line id="XMLID_2769_" class="st34" x1="298" y1="167.5" x2="298" y2="132.5"/>
</g>
<g id="XMLID_2765_">
	<rect id="XMLID_2767_" x="237.5" y="149.5" class="st20" width="16" height="11"/>
	<line id="XMLID_2766_" class="st34" x1="236" y1="184.5" x2="236" y2="149.5"/>
</g>
<g id="XMLID_2762_">
	<rect id="XMLID_2764_" x="279.5" y="152.5" class="st16" width="16" height="11"/>
	<line id="XMLID_2763_" class="st34" x1="278" y1="187.5" x2="278" y2="152.5"/>
</g>
<g id="XMLID_2759_">
	<rect id="XMLID_2761_" x="244.5" y="187.5" class="st16" width="16" height="11"/>
	<line id="XMLID_2760_" class="st34" x1="243" y1="222.5" x2="243" y2="187.5"/>
</g>
<g id="XMLID_2756_">
	<rect id="XMLID_2758_" x="9.5" y="121.5" class="st16" width="16" height="11"/>
	<line id="XMLID_2757_" class="st34" x1="8" y1="156.5" x2="8" y2="121.5"/>
</g>
<g id="XMLID_2753_">
	<rect id="XMLID_2755_" x="18.5" y="136.5" class="st16" width="16" height="11"/>
	<line id="XMLID_2754_" class="st34" x1="17" y1="171.5" x2="17" y2="136.5"/>
</g>
<g id="XMLID_2750_">
	<rect id="XMLID_2752_" x="294.5" y="100.5" class="st16" width="16" height="11"/>
	<line id="XMLID_2751_" class="st34" x1="293" y1="135.5" x2="293" y2="100.5"/>
</g>
<g id="XMLID_2747_">
	<rect id="XMLID_2749_" x="428.5" y="91.5" class="st20" width="16" height="11"/>
	<line id="XMLID_2748_" class="st34" x1="427" y1="126.5" x2="427" y2="91.5"/>
</g>
<g id="XMLID_2744_">
	<rect id="XMLID_2746_" x="416.5" y="111.5" class="st16" width="16" height="11"/>
	<line id="XMLID_2745_" class="st34" x1="415" y1="146.5" x2="415" y2="111.5"/>
</g>
<g id="XMLID_2741_">
	<rect id="XMLID_2743_" x="399.5" y="118.5" class="st20" width="16" height="11"/>
	<line id="XMLID_2742_" class="st34" x1="398" y1="153.5" x2="398" y2="118.5"/>
</g>
<g id="XMLID_2738_">
	<rect id="XMLID_2740_" x="411.5" y="123.5" class="st20" width="16" height="11"/>
	<line id="XMLID_2739_" class="st34" x1="410" y1="158.5" x2="410" y2="123.5"/>
</g>
<g id="XMLID_2735_">
	<rect id="XMLID_2737_" x="388.5" y="84.5" class="st16" width="16" height="11"/>
	<line id="XMLID_2736_" class="st34" x1="387" y1="119.5" x2="387" y2="84.5"/>
</g>
<g id="XMLID_2732_">
	<rect id="XMLID_2734_" x="378.5" y="84.5" class="st20" width="16" height="11"/>
	<line id="XMLID_2733_" class="st34" x1="377" y1="119.5" x2="377" y2="84.5"/>
</g>
<g id="XMLID_2729_">
	<rect id="XMLID_2731_" x="367.5" y="108.5" class="st16" width="16" height="11"/>
	<line id="XMLID_2730_" class="st34" x1="366" y1="143.5" x2="366" y2="108.5"/>
</g>
<g id="XMLID_2726_">
	<rect id="XMLID_2728_" x="219.5" y="253.5" class="st16" width="16" height="11"/>
	<line id="XMLID_2727_" class="st34" x1="218" y1="288.5" x2="218" y2="253.5"/>
</g>
<g id="XMLID_2723_">
	<rect id="XMLID_2725_" x="23.5" y="54.5" class="st20" width="16" height="11"/>
	<line id="XMLID_2724_" class="st34" x1="22" y1="89.5" x2="22" y2="54.5"/>
</g>
<g id="XMLID_2720_">
	<rect id="XMLID_2722_" x="402.5" y="126.5" class="st16" width="16" height="11"/>
	<line id="XMLID_2721_" class="st34" x1="401" y1="161.5" x2="401" y2="126.5"/>
</g>
<g id="XMLID_2717_">
	<rect id="XMLID_2719_" x="405.5" y="136.5" class="st20" width="16" height="11"/>
	<line id="XMLID_2718_" class="st34" x1="404" y1="171.5" x2="404" y2="136.5"/>
</g>
<g id="XMLID_2714_">
	<rect id="XMLID_2716_" x="398.5" y="142.5" class="st16" width="16" height="11"/>
	<line id="XMLID_2715_" class="st34" x1="397" y1="177.5" x2="397" y2="142.5"/>
</g>
<g id="XMLID_2711_">
	<rect id="XMLID_2713_" x="391.5" y="170.5" class="st16" width="16" height="11"/>
	<line id="XMLID_2712_" class="st34" x1="390" y1="205.5" x2="390" y2="170.5"/>
</g>
<g id="XMLID_2708_">
	<rect id="XMLID_2710_" x="379.5" y="182.5" class="st20" width="16" height="11"/>
	<line id="XMLID_2709_" class="st34" x1="378" y1="217.5" x2="378" y2="182.5"/>
</g>
<g id="XMLID_2705_">
	<rect id="XMLID_2707_" x="344.5" y="108.5" class="st16" width="16" height="11"/>
	<line id="XMLID_2706_" class="st34" x1="343" y1="143.5" x2="343" y2="108.5"/>
</g>
<g id="XMLID_2702_">
	<rect id="XMLID_2704_" x="325.5" y="118.5" class="st16" width="16" height="11"/>
	<line id="XMLID_2703_" class="st34" x1="324" y1="153.5" x2="324" y2="118.5"/>
</g>
<g id="XMLID_2699_">
	<line id="XMLID_2701_" class="st34" x1="331" y1="158.5" x2="331" y2="123.5"/>
	<rect id="XMLID_2700_" x="332.5" y="123.5" class="st20" width="16" height="11"/>
</g>
<g id="XMLID_2696_">
	<rect id="XMLID_2698_" x="319.5" y="130.5" class="st16" width="16" height="11"/>
	<line id="XMLID_2697_" class="st34" x1="318" y1="165.5" x2="318" y2="130.5"/>
</g>
<g id="XMLID_2693_">
	<rect id="XMLID_2695_" x="304.5" y="161.5" class="st16" width="16" height="11"/>
	<line id="XMLID_2694_" class="st34" x1="303" y1="196.5" x2="303" y2="161.5"/>
</g>
<g id="XMLID_2690_">
	<rect id="XMLID_2692_" x="392.5" y="281.5" class="st16" width="16" height="11"/>
	<line id="XMLID_2691_" class="st34" x1="391" y1="316.5" x2="391" y2="281.5"/>
</g>
<g id="XMLID_2687_">
	<rect id="XMLID_2689_" x="416.5" y="61.5" class="st16" width="16" height="11"/>
	<line id="XMLID_2688_" class="st34" x1="415" y1="96.5" x2="415" y2="61.5"/>
</g>
</svg>
