<?xml version="1.0" encoding="utf-8"?>
<!-- Generator: Adobe Illustrator 19.1.0, SVG Export Plug-In . SVG Version: 6.00 Build 0)  -->
<svg version="1.1" id="Layer_1" xmlns="http://www.w3.org/2000/svg" xmlns:xlink="http://www.w3.org/1999/xlink" x="0px" y="0px"
	 viewBox="0 0 220 140" style="enable-background:new 0 0 220 140;" xml:space="preserve">
<style type="text/css">
	.st0{fill:#EFD09E;}
	.st1{fill:#D8AE64;}
	.st2{fill:#FFFFFF;}
	.st3{fill:#FFF3E3;}
	.st4{opacity:0.1;fill:#2A4758;}
	.st5{fill:#2A4758;}
	.st6{opacity:0.4;fill:#FFFFFF;}
	.st7{opacity:0.6;fill:#FFFFFF;}
	.st8{fill:none;stroke:#D8AE64;stroke-miterlimit:10;}
	.st9{fill:#D38A16;}
	.st10{fill:none;stroke:#FFFFFF;stroke-miterlimit:10;}
	.st11{opacity:0.5;fill:#F95A61;}
	.st12{opacity:0.5;fill:none;stroke:#F95A61;stroke-miterlimit:10;}
	.st13{fill:none;stroke:#000000;stroke-miterlimit:10;}
	.st14{opacity:0.7;fill:#FFF3E3;}
	.st15{opacity:0.7;fill:#FFFFFF;}
	.st16{fill:#F95A61;}
	.st17{opacity:0.5;fill:#D8AE64;}
	.st18{fill:#F15A24;}
	.st19{fill:none;stroke:#D8AE64;stroke-width:2;stroke-miterlimit:10;}
	.st20{fill:#A05258;}
	.st21{fill:#2A4758;stroke:#2A4758;stroke-miterlimit:10;}
	.st22{fill:#2A4758;stroke:#FFF3E3;stroke-miterlimit:10;}
	.st23{opacity:0.6;fill:#2A4758;}
	.st24{fill:#49707F;}
	.st25{opacity:0.3;fill:none;stroke:#FFF3E3;stroke-width:7;stroke-miterlimit:10;}
	.st26{fill:none;stroke:#D8AE64;stroke-width:4;stroke-miterlimit:10;}
	.st27{opacity:0.5;}
	.st28{fill:none;stroke:#D8AE64;stroke-width:5;stroke-miterlimit:10;}
	.st29{fill:none;stroke:#2A4758;stroke-width:5;stroke-miterlimit:10;}
	.st30{fill:none;stroke:#F95A61;stroke-width:4;stroke-linecap:round;stroke-miterlimit:10;}
	.st31{opacity:0.4;fill:#D8AE64;}
	.st32{fill:#375868;}
	.st33{fill:none;stroke:#375868;stroke-width:5;stroke-miterlimit:10;}
	.st34{fill:none;stroke:#D8AE64;stroke-width:3;stroke-miterlimit:10;}
	.st35{opacity:0.3;fill:none;stroke:#2A4758;stroke-miterlimit:10;}
	.st36{fill:none;stroke:#A05258;stroke-miterlimit:10;}
	.st37{fill:none;stroke:#A05258;stroke-miterlimit:10;stroke-dasharray:2,2;}
	.st38{fill:none;stroke:#F95A61;stroke-miterlimit:10;}
	.st39{fill:none;stroke:#F95A61;stroke-miterlimit:10;stroke-dasharray:2,2;}
	.st40{opacity:0.4;fill:none;stroke:#2A4758;stroke-width:3;stroke-miterlimit:10;}
	.st41{opacity:0.4;}
	.st42{fill:none;stroke:#D8AE64;stroke-width:3;stroke-miterlimit:10;stroke-dasharray:2,2;}
	.st43{opacity:0.6;fill:#D8AE64;}
	.st44{opacity:0.2;fill:none;stroke:#2A4758;stroke-width:3;stroke-miterlimit:10;}
	.st45{fill:none;stroke:#2A4758;stroke-width:3;stroke-miterlimit:10;}
	.st46{opacity:0.7;}
	.st47{opacity:0.2;fill:#2A4758;}
	.st48{opacity:0.2;fill:none;stroke:#2A4758;stroke-width:0.4695;stroke-linecap:round;stroke-miterlimit:10;}
	.st49{opacity:0.2;}
	.st50{fill:none;stroke:#2A4758;stroke-width:0.4695;stroke-linecap:round;stroke-linejoin:round;stroke-miterlimit:10;}
	.st51{fill:#FFFFFF;stroke:#2A4758;stroke-width:0.4695;stroke-linecap:round;stroke-miterlimit:10;}
	.st52{opacity:0.3;}
	.st53{fill:none;stroke:#D8AE64;stroke-width:0.5315;stroke-linecap:round;stroke-linejoin:round;stroke-miterlimit:10;}
	.st54{fill:none;stroke:#EFD09E;stroke-width:26;stroke-miterlimit:10;}
	.st55{fill:none;stroke:#EFD09E;stroke-width:26;stroke-linecap:round;stroke-miterlimit:10;}
	.st56{fill:#A05258;stroke:#D8AE64;stroke-width:26;stroke-linecap:round;stroke-miterlimit:10;}
	.st57{fill:none;stroke:#2A4758;stroke-width:26;stroke-miterlimit:10;}
	.st58{fill:#EFD09E;stroke:#F95A61;stroke-width:26;stroke-miterlimit:10;}
	.st59{fill:none;stroke:#F95A61;stroke-width:26;stroke-miterlimit:10;}
	.st60{fill:none;stroke:#F15A24;stroke-width:10;stroke-miterlimit:10;}
	.st61{fill:none;stroke:#F15A24;stroke-width:10;stroke-miterlimit:10;stroke-dasharray:12.0461,12.0461;}
	.st62{fill:none;stroke:#F15A24;stroke-width:10;stroke-miterlimit:10;stroke-dasharray:11.2667,11.2667;}
	.st63{fill:none;stroke:#F15A24;stroke-width:2.6981;stroke-miterlimit:10;}
	.st64{fill:none;stroke:#F15A24;stroke-width:2.6981;stroke-miterlimit:10;stroke-dasharray:3.188,3.188;}
	.st65{fill:none;stroke:#F15A24;stroke-width:2.6981;stroke-miterlimit:10;stroke-dasharray:3.2207,3.2207;}
	.st66{fill:none;stroke:#F15A24;stroke-width:13.146;stroke-miterlimit:10;}
	.st67{fill:none;stroke:#F15A24;stroke-width:13.146;stroke-miterlimit:10;stroke-dasharray:15.8152,15.8152;}
	.st68{fill:none;stroke:#F15A24;stroke-width:13.146;stroke-miterlimit:10;stroke-dasharray:14.8316,14.8316;}
	.st69{fill:none;stroke:#D8AE64;stroke-width:6;stroke-linecap:round;stroke-miterlimit:10;}
	.st70{fill:none;stroke:#F95A61;stroke-width:3;stroke-miterlimit:10;}
	.st71{fill:#FFFFFF;stroke:#D8AE64;stroke-width:3.6755;stroke-miterlimit:10;}
	.st72{fill:none;stroke:#D8AE64;stroke-width:2.4503;stroke-linecap:round;stroke-miterlimit:10;}
	.st73{fill:none;stroke:#D8AE64;stroke-width:2.4503;stroke-linecap:round;stroke-linejoin:round;stroke-miterlimit:10;}
	.st74{fill:#FFFFFF;stroke:#2A4758;stroke-width:0.6524;stroke-linecap:round;stroke-miterlimit:10;}
	.st75{fill:none;stroke:#EFD09E;stroke-width:3;stroke-miterlimit:10;}
	.st76{fill:none;stroke:#EFD09E;stroke-width:3;stroke-linecap:round;stroke-miterlimit:10;}
	.st77{fill:#A05258;stroke:#D8AE64;stroke-width:3;stroke-linecap:round;stroke-miterlimit:10;}
	.st78{fill:none;stroke:#D8AE64;stroke-width:3.0248;stroke-linecap:round;stroke-miterlimit:10;}
	.st79{fill:#EFD09E;stroke:#F95A61;stroke-width:3;stroke-miterlimit:10;}
	.st80{fill:none;stroke:#A05258;stroke-width:3;stroke-linecap:round;stroke-miterlimit:10;}
	.st81{fill:none;stroke:#A05258;stroke-linecap:round;stroke-linejoin:round;stroke-miterlimit:10;}
	.st82{fill:none;stroke:#49707F;stroke-width:3;stroke-miterlimit:10;}
	.st83{fill:none;stroke:#D8AE64;stroke-width:2;stroke-linecap:round;stroke-linejoin:round;stroke-miterlimit:10;}
	.st84{fill:none;stroke:#F95A61;stroke-width:4;stroke-linecap:square;stroke-miterlimit:10;}
	.st85{opacity:0.35;fill:#2A4758;}
	.st86{fill:none;stroke:#F95A61;stroke-width:4;stroke-miterlimit:10;}
	.st87{opacity:0.5;fill:#FFFFFF;}
</style>
<g id="XMLID_2084_">
	<path id="XMLID_2541_" class="st0" d="M131,41.1c0-5.4-7.2-9.6-16-9.6S99,35.7,99,41c0,0.1,0,8,0,8h0v14.5v7v1.2l0,0
		c1,4.8,7.9,8.5,16,8.5c8,0,14.9-3.5,16-8.2v-0.2v-1.4v-7V49h0C131,49,131,41.2,131,41.1z"/>
	<path id="XMLID_2539_" class="st1" d="M63,66.5c0,5.4,7.2,9.8,16,9.8s16-4.4,16-9.8v-7c0,5.4-7.2,9.8-16,9.8s-16-4.4-16-9.8"/>
	<path id="XMLID_2537_" class="st1" d="M99,49.5c0,5.4,7.2,9.8,16,9.8s16-4.4,16-9.8v-7c0,5.4-7.2,9.8-16,9.8s-16-4.4-16-9.8"/>
	<path id="XMLID_2535_" class="st1" d="M99,63.5c0,5.4,7.2,9.8,16,9.8s16-4.4,16-9.8v-7c0,5.4-7.2,9.8-16,9.8s-16-4.4-16-9.8"/>
	<path id="XMLID_2533_" class="st0" d="M95,59.1c0-5.4-7.2-9.6-16-9.6S63,53.7,63,59c0,0.1,0,0,0,0h0v14.5v7v1.2l0,0
		c1,4.8,7.9,8.5,16,8.5c8,0,14.9-3.5,16-8.2v-0.2v-1.4v-7V59h0C95,59,95,59.2,95,59.1z"/>
	<path id="XMLID_2338_" class="st1" d="M63,80.5c0,5.4,7.2,9.8,16,9.8s16-4.4,16-9.8v-7c0,5.4-7.2,9.8-16,9.8s-16-4.4-16-9.8"/>
	<path id="XMLID_2337_" class="st0" d="M156,87.5c0-5.4-7.2-9.8-16-9.8s-16,4.4-16,9.8v7c0,5.4,7.2,9.8,16,9.8s16-4.4,16-9.8V87.5z"
		/>
	<path id="XMLID_2336_" class="st1" d="M124,94.5c0,5.4,7.2,9.8,16,9.8s16-4.4,16-9.8v-7c0,5.4-7.2,9.8-16,9.8s-16-4.4-16-9.8"/>
	<path id="XMLID_2335_" class="st1" d="M63,66.5c0,5.4,7.2,9.8,16,9.8s16-4.4,16-9.8v-7c0,5.4-7.2,9.8-16,9.8s-16-4.4-16-9.8"/>
	<path id="XMLID_2334_" class="st43" d="M116,91.5c0-5.4-7.2-9.8-16-9.8s-16,4.4-16,9.8v7c0,5.4,7.2,9.8,16,9.8s16-4.4,16-9.8V91.5z
		"/>
	<path id="XMLID_2333_" class="st1" d="M116,77.1c0-5.4-7.2-9.6-16-9.6S84,71.7,84,77c0,0.1,0,0,0,0h0v14.5v7v1.2l0,0
		c1,4.8,7.9,8.5,16,8.5c8,0,14.9-3.5,16-8.2v-0.2v-1.4v-7V77h0C116,77,116,77.2,116,77.1z"/>
	<path id="XMLID_2314_" class="st0" d="M84,91.5c0,5.4,7.2,9.8,16,9.8s16-4.4,16-9.8v-7c0,5.4-7.2,9.8-16,9.8s-16-4.4-16-9.8"/>
	<ellipse id="XMLID_2313_" class="st0" cx="100" cy="77" rx="16" ry="9.2"/>
</g>
</svg>
